<svg viewBox="0 0 32 32">
	<path d="M3.487,3.503v23.694c0,0.717,0.583,1.3,1.3,1.3h22.4c0.717,0,1.3-0.583,1.3-1.3V3.503H3.487z
		 M27.487,27.197c0,0.166-0.135,0.3-0.3,0.3h-22.4c-0.165,0-0.3-0.134-0.3-0.3V4.503h23V27.197z"/>
	<path d="M11.773,22.896v2.044l8.699-0.018v-2.027c0-0.572,0.465-1.038,1.037-1.04l4.965-0.013V5.461h-21v16.382
		l5.262,0.013C11.309,21.857,11.773,22.324,11.773,22.896z M6.475,6.461h19v14.385l-3.967,0.01
		c-1.122,0.002-2.035,0.917-2.035,2.04v1.029l-6.699,0.014v-1.042c0-1.122-0.913-2.038-2.035-2.04l-4.264-0.01V6.461z"/>
	<path d="M9.079,9.461h13.25c0.276,0,0.5-0.224,0.5-0.5s-0.224-0.5-0.5-0.5H9.079c-0.276,0-0.5,0.224-0.5,0.5
		S8.803,9.461,9.079,9.461z"/>
	<path d="M9.079,12.461h13.25c0.276,0,0.5-0.224,0.5-0.5s-0.224-0.5-0.5-0.5H9.079c-0.276,0-0.5,0.224-0.5,0.5
		S8.803,12.461,9.079,12.461z"/>
	<path d="M9.079,15.461h13.25c0.276,0,0.5-0.224,0.5-0.5s-0.224-0.5-0.5-0.5H9.079c-0.276,0-0.5,0.224-0.5,0.5
		S8.803,15.461,9.079,15.461z"/>
	<path d="M22.829,17.961c0-0.276-0.224-0.5-0.5-0.5H9.079c-0.276,0-0.5,0.224-0.5,0.5s0.224,0.5,0.5,0.5h13.25
		C22.605,18.461,22.829,18.237,22.829,17.961z"/>
</svg>