<svg viewBox="0 0 32 32">
	<path d="M28.714,12.273h-5.124l-3.365-6.776c-0.123-0.248-0.423-0.35-0.67-0.226
		c-0.248,0.123-0.349,0.423-0.226,0.67l3.144,6.332H9.855L13,5.941c0.123-0.247,0.022-0.547-0.226-0.67
		c-0.246-0.124-0.547-0.022-0.67,0.226l-3.365,6.776H3.135c-0.943,0-1.71,0.767-1.71,1.71v0.409c0,0.943,0.767,1.71,1.71,1.71
		h0.107l2.144,10.629c0.16,0.795,0.865,1.373,1.677,1.373H24.95c0.812,0,1.517-0.577,1.677-1.373l2.145-10.635
		c0.916-0.031,1.653-0.781,1.653-1.705v-0.409C30.425,13.041,29.658,12.273,28.714,12.273z M15.579,24.096v3.009h-4.163
		l-0.304-3.009H15.579z M11.012,23.096l-0.3-2.971h4.867v2.971H11.012z M16.579,24.096h4.473l-0.303,3.009h-4.169V24.096z
		M16.579,23.096v-2.971h4.873l-0.3,2.971H16.579z M16.579,19.125v-3.021h5.279l-0.305,3.021H16.579z M15.579,19.125h-4.968
		l-0.305-3.021h5.273V19.125z M9.301,16.104l0.305,3.021H4.872l-0.609-3.021H9.301z M5.073,20.125h4.633l0.3,2.971H5.693V23.2
		L5.073,20.125z M6.366,26.536l-0.492-2.439h4.233l0.304,3.009H7.063C6.726,27.105,6.433,26.866,6.366,26.536z M25.646,26.536
		c-0.066,0.33-0.359,0.57-0.696,0.57h-3.196l0.303-3.009h4.081L25.646,26.536z M26.34,23.096h-4.182l0.3-2.971h4.482L26.34,23.096z
		M27.141,19.125h-4.583l0.305-3.021h4.888L27.141,19.125z M29.425,14.393c0,0.392-0.319,0.71-0.71,0.71H3.135
		c-0.392,0-0.71-0.319-0.71-0.71v-0.409c0-0.392,0.318-0.71,0.71-0.71h25.58c0.392,0,0.71,0.319,0.71,0.71V14.393z"/>
</svg>