<svg viewBox="0 0 32 32">
	<path d="M16.968,5l-0.005,1.246c-0.002,0.452,0.3,0.85,0.736,0.969c1.097,0.3,2.636,0.993,3.664,2.041
		c1.44,1.462,2.233,3.389,2.233,5.427v3.79c0,0.235,0.083,0.463,0.234,0.643c0.488,0.581,1.626,1.545,2.643,2.239l0.636,0.439
		l0.03,0.796c0.001,0.027,0.003,0.055,0.006,0.082l0.02,0.169l0.062,1.574h-7.353c-0.399,0-0.76,0.237-0.918,0.603
		C18.436,26.223,17.276,27,16.001,27c-1.291,0-2.46-0.777-2.979-1.98c-0.158-0.367-0.519-0.604-0.918-0.604H4.77l0.095-2.621
		l0.633-0.437c0.999-0.685,2.139-1.643,2.651-2.228c0.16-0.182,0.248-0.416,0.248-0.659l0-1.404l-0.022-2.384
		c0-2.04,0.793-3.968,2.227-5.422c1.057-1.055,2.59-1.749,3.672-2.047c0.434-0.119,0.735-0.514,0.735-0.964V5H16.968 M17.972,4
		h-3.964v2.251c-1.219,0.336-2.915,1.108-4.113,2.303c-1.626,1.648-2.521,3.825-2.521,6.13l0.022,2.393v1.394
		c-0.452,0.516-1.544,1.431-2.464,2.062l-1.049,0.723l-0.15,4.159h8.371c0.678,1.572,2.2,2.584,3.897,2.584
		c1.681,0,3.194-1.012,3.874-2.584h8.393l-0.104-2.654l-0.025-0.209l-0.048-1.296l-1.048-0.724
		c-0.936-0.639-2.02-1.553-2.446-2.059v-3.79c0-2.303-0.895-4.479-2.521-6.129c-1.169-1.191-2.875-1.965-4.113-2.303L17.972,4
		L17.972,4z"/>
</svg>
