<svg viewBox="0 0 32 32">
	<path d="M4.864,21.795l0.633-0.437c0.999-0.685,2.139-1.643,2.651-2.228c0.16-0.182,0.248-0.416,0.248-0.659l0-1.404l-0.022-2.384
		c0-2.04,0.793-3.968,2.227-5.422c1.057-1.055,2.59-1.749,3.672-2.047c0.434-0.12,0.734-0.514,0.734-0.964V5h1.959l-0.005,1.246
		c-0.002,0.452,0.3,0.85,0.737,0.969c0.699,0.191,1.57,0.559,2.382,1.059l0.725-0.725c-0.956-0.624-2.004-1.07-2.843-1.299
		L17.972,4h-3.964v2.251c-1.219,0.336-2.915,1.108-4.113,2.303c-1.626,1.648-2.521,3.825-2.521,6.13l0.022,2.393v1.394
		c-0.452,0.516-1.544,1.431-2.464,2.062l-1.049,0.723l-0.121,3.336l1.038-1.038L4.864,21.795z"/>
	<path d="M28.163,22.763l-0.025-0.209l-0.048-1.296l-1.048-0.724c-0.936-0.639-2.02-1.553-2.446-2.059v-3.79
		c0-1.123-0.216-2.214-0.623-3.23l-0.783,0.782c0.262,0.781,0.405,1.604,0.405,2.448v3.79c0,0.235,0.083,0.463,0.234,0.643
		c0.488,0.581,1.626,1.545,2.643,2.239l0.636,0.439l0.03,0.796c0.001,0.027,0.003,0.055,0.006,0.082l0.02,0.169l0.062,1.574h-7.353
		c-0.399,0-0.76,0.237-0.918,0.603C18.436,26.223,17.276,27,16.001,27c-1.291,0-2.46-0.777-2.979-1.98
		c-0.158-0.367-0.519-0.604-0.918-0.604H11.01l-1,1h2.094c0.678,1.572,2.2,2.584,3.897,2.584c1.681,0,3.194-1.012,3.874-2.584
		h8.393L28.163,22.763z"/>
	<rect x="14.77" y="2.285" transform="matrix(0.7071 0.7071 -0.7071 0.7071 16.2255 -5.9291)" width="1" height="28.673"/>
</svg>
