<svg viewBox="0 0 32 32">
	<path d="M28.065,6.774H8.403c-0.904,0-1.636,0.732-1.636,1.636v15.057h0v1h0v3.605
		c0,0.904,0.733,1.636,1.636,1.636h19.662c0.904,0,1.636-0.732,1.636-1.636V8.41C29.701,7.507,28.969,6.774,28.065,6.774z
		M7.767,8.41c0-0.351,0.285-0.636,0.636-0.636h19.662c0.351,0,0.636,0.285,0.636,0.636v15.057H7.767V8.41z M28.065,28.708H8.403
		c-0.351,0-0.636-0.285-0.636-0.636v-3.605h20.934v3.605C28.701,28.423,28.416,28.708,28.065,28.708z"/>
	<path d="M5.045,23.118H3.892c-0.603,0-1.093-0.49-1.093-1.093v-2.497h2.243c0.276,0,0.5-0.224,0.5-0.5
		s-0.224-0.5-0.5-0.5H2.799V3.885c0-0.603,0.49-1.093,1.093-1.093h18.141c0.603,0,1.093,0.49,1.093,1.093v1.093
		c0,0.276,0.224,0.5,0.5,0.5s0.5-0.224,0.5-0.5V3.885c0-1.154-0.939-2.093-2.093-2.093H3.892c-1.154,0-2.093,0.939-2.093,2.093
		v18.141c0,1.154,0.939,2.093,2.093,2.093h1.154c0.276,0,0.5-0.224,0.5-0.5S5.322,23.118,5.045,23.118z"/>
</svg>