<svg viewBox="0 0 32 32">
	<path d="M27.341,11.808l0.046-0.046l-9.578-9.578c-0.975-0.974-2.561-0.976-3.535,0l-9.648,9.648l0.002,0.002
			c-0.295,0.274-0.483,0.662-0.483,1.096v14.173c0,0.827,0.673,1.5,1.5,1.5h20.713c0.827,0,1.5-0.673,1.5-1.5V12.931
			C27.856,12.482,27.654,12.083,27.341,11.808z M7.684,10.166l0.021,0l7.275-7.275c0.584-0.585,1.537-0.585,2.121,0L24.6,10.39
			l0.019,0l1.799,1.799l-0.8,0.8l-0.026,0l-0.247,0.247H6.736L6.53,13.03H6.525l-0.852-0.852L7.684,10.166z M24.268,14.236
			l-5.034,5.034c-1.265-1.116-2.214-1.681-3.212-1.681c-1.01,0-1.942,0.574-3.214,1.718l-5.071-5.071H24.268z M5.144,26.858v-13.8
			l0.178,0.178H5.317l6.724,6.724L5.144,26.858z M5.812,27.604l4.875-4.875L10.67,22.72c1.46-1.46,2.518-2.513,3.409-3.177
			c0.761-0.613,1.381-0.953,1.943-0.953c0.45,0,0.949,0.229,1.523,0.627c1.05,0.64,2.319,1.893,4.232,3.805
			c0.146,0.146,0.237,0.283,0.29,0.413c0.01-0.006,0.025-0.01,0.035-0.016l4.187,4.187H5.812z M26.856,26.759l-6.81-6.81l6.81-6.81
			V26.759z"/>
</svg>