<svg viewBox="0 0 32 32">
	<path d="M26.356,11.431H5.644c-0.827,0-1.5,0.673-1.5,1.5v14.173c0,0.827,0.673,1.5,1.5,1.5h20.713
		c0.827,0,1.5-0.673,1.5-1.5V12.931C27.856,12.104,27.184,11.431,26.356,11.431z M17.102,21.48c-0.584,0.584-1.537,0.584-2.121,0
			l-9.05-9.05h20.221L17.102,21.48z M12.044,19.958l-6.9,6.901v-13.8L12.044,19.958z M12.751,20.665l1.523,1.523
			c0.487,0.487,1.127,0.73,1.768,0.73c0.64,0,1.28-0.243,1.768-0.73l1.531-1.531l6.948,6.947H5.812L12.751,20.665z M20.046,19.95
			l6.81-6.81v13.62L20.046,19.95z"/>
</svg>