<svg viewBox="0 0 32 32">
  <g>
    <path d="M16,3.364c6.968,0,12.636,5.669,12.636,12.636S22.968,28.636,16,28.636S3.364,22.968,3.364,16
      S9.032,3.364,16,3.364 M16,2.364C8.481,2.364,2.364,8.481,2.364,16S8.481,29.636,16,29.636S29.636,23.519,29.636,16
      S23.519,2.364,16,2.364L16,2.364z"/>
    <path d="M14.815,22.192c0-0.795,0.552-1.369,1.303-1.369c0.795,0,1.303,0.574,1.303,1.369
      c0,0.772-0.508,1.369-1.303,1.369C15.346,23.562,14.815,22.965,14.815,22.192z M15.368,19.035L15.059,8.436h2.12l-0.31,10.599
      H15.368z"/>
  </g>
</svg>
