<svg viewBox="0 0 32 32">
	<path d="M15.977,16.21c1.52,0,2.753-1.233,2.753-2.753c0-1.52-1.233-2.753-2.753-2.753s-2.753,1.233-2.753,2.753
		C13.224,14.977,14.456,16.21,15.977,16.21z M15.247,12.61c0.546,0,0.988,0.442,0.988,0.988c0,0.546-0.442,0.988-0.988,0.988
		s-0.988-0.442-0.988-0.988C14.259,13.052,14.701,12.61,15.247,12.61z"/>
	<path d="M27.861,15.741c-2.021-3.227-4.34-5.202-7.283-6.216l-0.008-0.01L20.433,9.47c-2.842-0.94-5.932-1.005-8.746-0.186
		l-0.139,0.041l-0.009,0.01c-3.214,0.979-5.673,3.085-7.509,6.446c-0.086,0.156-0.081,0.346,0.011,0.498
		c2.488,4.117,7.201,6.676,12.299,6.676c5.153,0,9.47-2.515,11.546-6.728C27.963,16.072,27.953,15.889,27.861,15.741z
		 M19.963,10.369c0.088,0.113,0.163,0.231,0.24,0.348c0.071,0.107,0.149,0.211,0.211,0.321c0.081,0.145,0.143,0.297,0.208,0.448
		c0.047,0.107,0.104,0.211,0.143,0.321c0.061,0.172,0.1,0.351,0.142,0.528c0.022,0.094,0.056,0.186,0.072,0.281
		c0.048,0.276,0.073,0.556,0.073,0.84c0,2.799-2.277,5.076-5.076,5.076S10.9,16.256,10.9,13.457c0-0.301,0.029-0.599,0.084-0.893
		c0.019-0.102,0.057-0.2,0.082-0.3c0.047-0.188,0.091-0.378,0.16-0.56c0.045-0.119,0.11-0.231,0.164-0.346
		c0.073-0.156,0.14-0.314,0.229-0.462c0.071-0.119,0.161-0.229,0.242-0.343c0.084-0.119,0.166-0.239,0.261-0.352
		C14.651,9.497,17.413,9.558,19.963,10.369z M16.34,21.955c-4.647,0-8.945-2.272-11.291-5.948c1.427-2.515,3.236-4.243,5.498-5.245
		c-0.077,0.152-0.14,0.31-0.203,0.467c-0.016,0.04-0.036,0.079-0.052,0.12c-0.113,0.299-0.198,0.607-0.262,0.92
		c-0.015,0.072-0.027,0.143-0.039,0.215C9.937,12.805,9.9,13.129,9.9,13.457c0,3.351,2.726,6.076,6.076,6.076
		s6.076-2.726,6.076-6.076c0-0.311-0.032-0.616-0.08-0.919c-0.01-0.064-0.019-0.128-0.031-0.192
		c-0.056-0.291-0.13-0.577-0.229-0.857c-0.018-0.051-0.04-0.1-0.06-0.151c-0.046-0.12-0.089-0.242-0.143-0.36
		c2.085,0.999,3.78,2.609,5.353,5.056C24.912,19.748,21.001,21.955,16.34,21.955z"/>
</svg>
