<svg viewBox="0 0 32 32">
	<path d="M16,4.201c-4.094,0-11.836,0.631-11.836,3.019c0,0.242,0.081,0.474,0.259,0.704
	c0.003,0.014,0.006,0.027,0.01,0.04c0.72,2.456,2.718,4.072,4.832,5.784c2.446,1.98,4.976,4.029,4.976,7.406
	c0.02,1.059,0.124,6.376,0.292,7.048c0.208,0.832,0.454,1,1.467,1c1.013,0,1.259-0.168,1.467-1
	c0.292-1.168,0.292-3.385,0.292-7.058c0-3.369,2.529-5.417,4.976-7.396c2.11-1.708,4.102-3.321,4.826-5.78
	c0.002-0.006,0.003-0.012,0.005-0.018c0.18-0.229,0.27-0.474,0.27-0.729C27.836,4.832,20.094,4.201,16,4.201z M22.106,12.97
	c-2.629,2.128-5.347,4.328-5.347,8.174c0,3.596,0,5.766-0.262,6.815c-0.021,0.081-0.042,0.168-0.061,0.227
	c-0.119,0.016-0.351,0.016-0.437,0.016c-0.086,0-0.317,0-0.437-0.016c-0.018-0.058-0.04-0.146-0.06-0.227
	c-0.097-0.394-0.208-3.81-0.262-6.815c0-3.845-2.718-6.045-5.347-8.174c-1.59-1.288-3.111-2.518-3.979-4.062
	c1.396,0.557,3.336,0.864,4.537,1.011c3.53,0.515,7.563,0.514,11.083,0.002c1.209-0.148,3.15-0.456,4.542-1.004
	C25.207,10.46,23.691,11.687,22.106,12.97z M26.652,7.477c-1.218,0.629-3.034,1.132-5.241,1.453
	c-3.297,0.405-7.537,0.403-10.816,0C8.378,8.607,6.563,8.104,5.422,7.523C5.218,7.367,5.164,7.256,5.164,7.22
	c0-0.685,3.825-2.019,10.836-2.019S26.836,6.535,26.836,7.22C26.836,7.256,26.782,7.367,26.652,7.477z"/>
</svg>