<svg viewBox="0 0 32 32">
	<path d="M16,10.7c-2.922,0-5.3,2.377-5.3,5.3s2.377,5.3,5.3,5.3s5.3-2.378,5.3-5.3S18.922,10.7,16,10.7z M16,20.3
				c-2.371,0-4.3-1.929-4.3-4.3s1.929-4.3,4.3-4.3s4.3,1.929,4.3,4.3S18.371,20.3,16,20.3z"/>
	<path d="M26.88,13.722c-0.247-0.062-0.441-0.253-0.507-0.499c-0.243-0.905-0.605-1.777-1.077-2.591
				c-0.128-0.22-0.125-0.492,0.005-0.711l0.866-1.432l-2.654-2.653l-1.442,0.865c-0.215,0.128-0.495,0.131-0.71,0.006
				c-0.814-0.47-1.683-0.83-2.582-1.07c-0.247-0.066-0.438-0.26-0.5-0.507l-0.32-1.275L17.854,3.5h-3.727l-0.407,1.63
				c-0.062,0.247-0.253,0.441-0.498,0.507c-0.901,0.24-1.771,0.601-2.582,1.07c-0.217,0.125-0.498,0.122-0.711-0.005L8.486,5.837
				L6.114,8.209l-0.27,0.288l0.854,1.425c0.131,0.218,0.133,0.491,0.005,0.711c-0.473,0.815-0.835,1.687-1.077,2.591
				c-0.066,0.245-0.26,0.437-0.506,0.498L3.5,14.126l0.002,3.679l0.294,0.133l1.324,0.341c0.247,0.061,0.44,0.252,0.506,0.497
				c0.242,0.904,0.604,1.776,1.077,2.59c0.128,0.22,0.126,0.493-0.005,0.711l-0.861,1.436l2.372,2.373l0.31,0.208l1.409-0.797
				c0.215-0.128,0.494-0.132,0.71-0.006c0.814,0.47,1.683,0.83,2.583,1.07c0.246,0.066,0.437,0.26,0.499,0.506l0.407,1.632h3.355
				l0.395-0.014l0.405-1.617c0.061-0.246,0.252-0.44,0.498-0.506c0.9-0.241,1.769-0.601,2.583-1.071
				c0.214-0.124,0.495-0.121,0.709,0.006l1.163,0.692l0.314,0.139l2.616-2.616l-0.862-1.435c-0.131-0.219-0.133-0.492-0.005-0.712
				c0.471-0.812,0.833-1.684,1.077-2.59c0.065-0.245,0.259-0.436,0.506-0.497l1.162-0.295l0.458-0.177v-3.681L26.88,13.722z
				 M27.5,17.093l-0.862,0.216c-0.599,0.149-1.07,0.613-1.229,1.209c-0.22,0.821-0.548,1.61-0.976,2.346
				c-0.311,0.535-0.306,1.197,0.012,1.729l0.46,0.766l-1.545,1.545l-0.773-0.463c-0.521-0.313-1.202-0.317-1.724-0.015
				c-0.738,0.426-1.525,0.752-2.341,0.971c-0.597,0.16-1.061,0.631-1.21,1.23L17.093,27.5h-2.186l-0.219-0.875
				c-0.15-0.598-0.613-1.069-1.21-1.229c-0.815-0.218-1.604-0.545-2.341-0.97c-0.523-0.303-1.203-0.297-1.725,0.014l-0.771,0.465
				l-1.546-1.547l0.46-0.766c0.318-0.531,0.323-1.193,0.013-1.728c-0.429-0.738-0.757-1.528-0.976-2.347
				c-0.16-0.596-0.631-1.06-1.229-1.208L4.5,17.096v-2.188l0.863-0.215c0.599-0.151,1.07-0.614,1.229-1.21
				c0.219-0.818,0.547-1.608,0.976-2.347c0.31-0.535,0.305-1.197-0.013-1.728l-0.46-0.766l1.545-1.545L9.415,7.56
				c0.521,0.31,1.197,0.316,1.725,0.014c0.736-0.426,1.523-0.752,2.341-0.97c0.596-0.161,1.06-0.632,1.209-1.23L14.908,4.5h2.185
				l0.218,0.873c0.149,0.598,0.613,1.07,1.211,1.23c0.815,0.218,1.602,0.544,2.34,0.97c0.522,0.303,1.201,0.299,1.725-0.014
				l0.773-0.464l1.545,1.545l-0.46,0.767c-0.318,0.531-0.323,1.193-0.013,1.728c0.428,0.737,0.756,1.527,0.976,2.346
				c0.159,0.596,0.63,1.06,1.23,1.211l0.862,0.215V17.093z"/>
			<path d="M16,8.656c-4.049,0-7.344,3.294-7.344,7.343s3.294,7.344,7.344,7.344s7.344-3.294,7.344-7.344
				S20.049,8.656,16,8.656z M16,22.343c-3.498,0-6.344-2.846-6.344-6.344c0-3.498,2.846-6.343,6.344-6.343s6.344,2.846,6.344,6.343
				C22.344,19.498,19.498,22.343,16,22.343z"/>
</svg>