<svg viewBox="0 0 32 32">
	<path d="M29.945,16.234c-0.554-0.894-1.283-1.554-2.115-1.947v-0.694C27.831,6.925,22.523,1.5,16,1.5
			S4.169,6.925,4.169,13.594v0.667c-0.857,0.389-1.607,1.058-2.175,1.973C1.179,17.55,0.833,19.211,1.02,20.91
			c0.361,3.288,2.716,5.865,5.361,5.865c0.161,0,0.323-0.009,0.485-0.029c1.443-0.166,3.78-1.279,3.165-6.864
			c-0.545-4.965-2.554-6.007-4.144-6.007c-0.146,0-0.295,0.009-0.45,0.027c-0.091,0.01-0.179,0.031-0.268,0.048v-0.355
			C5.169,7.477,10.028,2.5,16,2.5s10.831,4.977,10.831,11.094v0.366c-0.109-0.021-0.218-0.046-0.329-0.058
			c-0.155-0.018-0.304-0.027-0.449-0.027c-1.59,0-3.599,1.042-4.144,6.007c-0.579,5.262,1.462,6.553,2.911,6.825
			c-0.781,0.909-2.178,1.86-4.536,1.849c-0.102-1.135-1.04-2.034-2.186-2.034h-0.003l-0.003,0l-1.302,0.009
			c-0.594,0.003-1.15,0.242-1.565,0.673c-0.408,0.422-0.631,0.981-0.628,1.574C14.604,30.004,15.594,31,16.803,31l1.307-0.009
			c0.595-0.005,1.15-0.244,1.565-0.673c0.21-0.219,0.37-0.473,0.476-0.748c0.068,0.001,0.14,0.008,0.206,0.008
			c3.239,0,4.9-1.64,5.687-2.833c2.443-0.29,4.538-2.749,4.877-5.836C31.107,19.211,30.761,17.55,29.945,16.234z M5.553,14.894
			c0.115-0.013,0.226-0.02,0.334-0.02c2.139,0,2.894,2.782,3.15,5.116c0.272,2.477,0.096,5.487-2.291,5.762
			c-0.122,0.015-0.244,0.021-0.366,0.021c-2.142,0-4.061-2.185-4.367-4.974c-0.163-1.478,0.133-2.912,0.831-4.039
			C3.514,15.68,4.476,15.018,5.553,14.894z M18.956,29.624c-0.227,0.235-0.529,0.365-0.852,0.368L16.811,30h-0.008
			c-0.661,0-1.203-0.55-1.207-1.227c-0.002-0.33,0.121-0.641,0.348-0.876c0.226-0.235,0.529-0.365,0.851-0.367l1.302-0.009
			c0.66,0,1.201,0.55,1.206,1.227C19.306,29.078,19.182,29.389,18.956,29.624z M29.926,20.8c-0.306,2.787-2.224,4.974-4.365,4.974
			c-0.122,0-0.245-0.007-0.368-0.022c-2.387-0.275-2.563-3.285-2.291-5.762c0.256-2.334,1.011-5.116,3.15-5.116
			c0.108,0,0.219,0.007,0.335,0.02c1.077,0.124,2.038,0.786,2.708,1.866C29.794,17.888,30.089,19.322,29.926,20.8z"/>
</svg>