<svg viewBox="0 0 32 32">
	<path d="M22.091,5.198c2.344,0,4.328,1.184,5.307,3.167c2.284,4.702-2.488,9.462-9.71,16.667l-0.226,0.226l-1.096,1.094
	l-0.21,0.212l-0.21-0.211c-0.398-0.398-0.792-0.79-1.18-1.174C7.447,17.907,2.612,13.102,4.924,8.365
	c0.978-1.983,2.963-3.167,5.309-3.167c3.122,0,4.701,1.89,5.728,3.536l0.205,0.329l0.21-0.326
	C17.352,7.218,19.006,5.198,22.091,5.198 M22.091,4.198c-3.085,0-4.941,1.801-5.917,3.074c-1.135-1.513-2.922-3.074-5.942-3.074
	c-2.735,0-5.055,1.392-6.206,3.724c-2.628,5.384,2.41,10.389,10.034,17.966c0.388,0.384,0.78,0.775,1.177,1.172l0.209,0.21
	c0.188,0.188,0.442,0.294,0.708,0.294c0,0,0.001,0,0.001,0c0.266,0,0.521-0.107,0.709-0.296l0.21-0.212l1.092-1.09l0.226-0.226
	c7.526-7.508,12.498-12.468,9.903-17.811C27.143,5.591,24.824,4.198,22.091,4.198L22.091,4.198z"/>
</svg>