<svg viewBox="0 0 32 32">
	<path d="M27.887,2H4.113C2.946,2,2,2.946,2,4.113v23.774C2,29.054,2.946,30,4.113,30h23.774
		C29.054,30,30,29.054,30,27.887V4.113C30,2.946,29.054,2,27.887,2z M29,27.887C29,28.501,28.501,29,27.887,29H4.113
		C3.499,29,3,28.501,3,27.887V4.113C3,3.499,3.499,3,4.113,3h23.774C28.501,3,29,3.499,29,4.113V27.887z"/>
	<path d="M8.87,11.937c1.657,0,3-1.343,3-3c0-1.657-1.343-3-3-3s-3,1.343-3,3
		C5.87,10.594,7.214,11.937,8.87,11.937z M8.87,6.937c1.103,0,2,0.897,2,2c0,1.103-0.897,2-2,2c-1.103,0-2-0.897-2-2
		C6.87,7.834,7.768,6.937,8.87,6.937z"/>
	<path d="M20.444,16.841c-0.165-0.236-0.423-0.39-0.709-0.422c-0.037-0.004-0.074-0.006-0.111-0.006
		c-0.248,0-0.488,0.092-0.674,0.261l-2.28,2.078l-2.738-4.354c-0.183-0.291-0.503-0.468-0.846-0.468c-0.004,0-0.007,0-0.011,0
		c-0.348,0.004-0.668,0.188-0.847,0.487L6.072,24.708c-0.185,0.309-0.189,0.693-0.012,1.007c0.178,0.313,0.51,0.507,0.87,0.507
		H25.07c0.373,0,0.714-0.207,0.887-0.537c0.172-0.33,0.147-0.729-0.066-1.035L20.444,16.841z M6.93,25.222l6.156-10.292
		l3.374,5.366l3.164-2.883l5.446,7.809H6.93z"/>
		</g>
</svg>
