<svg viewBox="0 0 32 32">
	<path d="M11.786,22.896v2.044l8.699-0.018v-2.027c0-0.572,0.465-1.038,1.037-1.04l4.965-0.013V5.461h-21v16.382
		l5.262,0.013C11.321,21.857,11.786,22.324,11.786,22.896z M6.487,6.461h19v14.385l-3.967,0.01
		c-1.122,0.002-2.035,0.917-2.035,2.04v1.029l-6.699,0.014v-1.042c0-1.122-0.913-2.038-2.034-2.04l-4.265-0.01V6.461z"/>
	<path d="M3.5,3.503v23.694c0,0.717,0.583,1.3,1.3,1.3h22.4c0.717,0,1.3-0.583,1.3-1.3V3.503H3.5z M27.5,27.197
		c0,0.166-0.134,0.3-0.3,0.3H4.8c-0.166,0-0.3-0.134-0.3-0.3V4.503h23V27.197z"/>
	<path d="M15.539,19.751c0.075,0.18,0.253,0.307,0.461,0.307c0.146,0,0.274-0.064,0.365-0.164
		c0.004-0.004,0.01-0.005,0.015-0.01l2.841-2.841c0.195-0.195,0.195-0.512,0-0.707s-0.512-0.195-0.707,0L16.5,18.351v-9.39
		c0-0.276-0.224-0.5-0.5-0.5c-0.276,0-0.5,0.224-0.5,0.5v9.337l-1.961-1.961c-0.195-0.195-0.512-0.195-0.707,0
		s-0.195,0.512,0,0.707L15.539,19.751z"/>
</svg>