<svg viewBox="0 0 32 32">
	<path d="M15.767,5.349c2.628,0,4.767,2.138,4.767,4.767c0,1.672-0.858,3.193-2.295,4.069l-0.48,0.292v0.562
		v10.268l-1.629,1.629l-1.781-1.781l0.571-0.571l0.707-0.707l-0.707-0.707l-0.603-0.603l0.665-0.665l0.707-0.707l-0.707-0.707
		l-0.537-0.537l0.597-0.596l0.707-0.707l-0.707-0.707l-0.866-0.866v-1.81v-0.616l-0.55-0.277C12.006,13.552,11,11.922,11,10.116
		C11,7.487,13.138,5.349,15.767,5.349 M15.767,4.349C12.582,4.349,10,6.931,10,10.116c0,2.252,1.294,4.197,3.176,5.147v2.225
		l1.159,1.159l-1.304,1.304l1.244,1.244l-1.372,1.372l1.31,1.31l-1.278,1.278l3.195,3.195l2.629-2.629V15.038
		c1.661-1.012,2.774-2.835,2.774-4.923C21.533,6.931,18.952,4.349,15.767,4.349L15.767,4.349z"/>
	<path d="M15.767,7.9c0.235,0,0.427,0.191,0.427,0.427s-0.191,0.427-0.427,0.427c-0.235,0-0.427-0.191-0.427-0.427
		S15.531,7.9,15.767,7.9 M15.767,6.9c-0.788,0-1.427,0.639-1.427,1.427c0,0.788,0.639,1.427,1.427,1.427
		c0.788,0,1.427-0.639,1.427-1.427C17.194,7.539,16.555,6.9,15.767,6.9L15.767,6.9z"/>
</svg>
