<svg viewBox="0 0 32 32">
	<path d="M26.909,8.756H11.636c-0.276,0-0.5-0.224-0.5-0.5s0.224-0.5,0.5-0.5h15.273c0.276,0,0.5,0.224,0.5,0.5
	S27.186,8.756,26.909,8.756z"/>
	<path d="M26.909,16.392H11.636c-0.276,0-0.5-0.224-0.5-0.5s0.224-0.5,0.5-0.5h15.273c0.276,0,0.5,0.224,0.5,0.5
	S27.186,16.392,26.909,16.392z"/>
	<path d="M26.909,24.024H11.636c-0.276,0-0.5-0.224-0.5-0.5s0.224-0.5,0.5-0.5h15.273c0.276,0,0.5,0.224,0.5,0.5
	S27.186,24.024,26.909,24.024z"/>
	<path d="M6.182,9.847c0.877,0,1.591-0.714,1.591-1.591S7.059,6.665,6.182,6.665S4.591,7.379,4.591,8.256S5.305,9.847,6.182,9.847z
			 M6.182,7.665c0.326,0,0.591,0.265,0.591,0.591S6.507,8.847,6.182,8.847S5.591,8.582,5.591,8.256S5.856,7.665,6.182,7.665z
			 M6.182,14.301c-0.877,0-1.591,0.714-1.591,1.591s0.714,1.59,1.591,1.59s1.591-0.713,1.591-1.59S7.059,14.301,6.182,14.301z
			 M6.182,16.483c-0.326,0-0.591-0.265-0.591-0.591s0.265-0.591,0.591-0.591s0.591,0.265,0.591,0.591S6.507,16.483,6.182,16.483z
			 M6.182,21.934c-0.877,0-1.591,0.714-1.591,1.591c0,0.878,0.714,1.592,1.591,1.592s1.591-0.714,1.591-1.592
			C7.772,22.647,7.059,21.934,6.182,21.934z M6.182,24.116c-0.326,0-0.591-0.266-0.591-0.592s0.265-0.591,0.591-0.591
			s0.591,0.265,0.591,0.591S6.507,24.116,6.182,24.116z"/>
</svg>