<svg viewBox="0 0 32 32">
	<rect x="11.729" y="11.654" width="8.541" height="1"/>
	<path d="M15.948,21.633h0.105c2.877,0,5.218-2.412,5.218-5.376V7.77c0-2.964-2.341-5.376-5.218-5.376h-0.105
		c-2.877,0-5.218,2.412-5.218,5.376v8.487C10.729,19.221,13.07,21.633,15.948,21.633z M11.729,7.77
		c0-2.413,1.892-4.376,4.218-4.376h0.105c2.326,0,4.218,1.963,4.218,4.376v8.487c0,2.413-1.892,4.376-4.218,4.376h-0.105
		c-2.326,0-4.218-1.963-4.218-4.376V7.77z"/>
	<path d="M22.866,13.299v3.889c0,3.37-3.043,6.111-6.782,6.111h-0.168c-3.74,0-6.783-2.742-6.783-6.111v-3.889h-1
		v3.889c0,3.793,3.269,6.893,7.367,7.092v4.101h-4.771v1h10.541v-1H16.5V24.28c4.097-0.199,7.366-3.299,7.366-7.092v-3.889H22.866
		z"/>
</svg>