<svg viewBox="0 0 32 32">
	<path d="M19.485,12.114h-6.971c-0.251,0-0.455,0.205-0.455,0.456v6.971c0,0.251,0.204,0.455,0.455,0.455h6.971
		c0.251,0,0.455-0.204,0.455-0.455V12.57C19.941,12.319,19.737,12.114,19.485,12.114z M18.941,18.996h-5.881v-5.882h5.881V18.996z
		"/>
	<path d="M30.103,20.088h-5.15v-3.533H30v-1h-5.048v-3.533H30v-1h-5.048V8.044c0-0.552-0.448-1-1-1H21.04V2.056h-1
		v4.989H16.5V2.056h-1v4.989h-3.545V2.056h-1v4.989H8.048c-0.552,0-1,0.448-1,1v2.978H2v1h5.048v3.533H2v1h5.048v3.533H2v1h5.048
		v2.861c0,0.552,0.448,1,1,1h2.907v5.106h1v-5.106H15.5v5.106h1v-5.106h3.54v5.106h1v-5.106h2.912c0.552,0,1-0.448,1-1v-2.861
		h5.15V20.088z M23.952,23.949H8.048v-2.861h0v-1h0v-3.533h0v-1h0v-3.533h0v-1h0V8.044h15.905v2.978h0v1h0v3.533h0v1h0v3.533h0v1
		h0V23.949z"/>
</svg>