<svg viewBox="0 0 32 32">
	<path d="M16,17.075c-1.481,0-2.687,1.206-2.687,2.687c0,0.847,0.412,1.647,1.093,2.152v1.128
		c0,0.878,0.715,1.593,1.594,1.593c0.879,0,1.594-0.715,1.594-1.593v-1.128c0.681-0.503,1.093-1.304,1.093-2.152
		C18.687,18.28,17.481,17.075,16,17.075z M16.843,21.213l-0.249,0.145v1.684c0,0.327-0.267,0.593-0.594,0.593
		c-0.327,0-0.594-0.266-0.594-0.593v-1.684l-0.248-0.145c-0.529-0.308-0.845-0.851-0.845-1.452c0-0.93,0.757-1.687,1.687-1.687
		c0.93,0,1.687,0.757,1.687,1.687C17.687,20.363,17.371,20.906,16.843,21.213z"/>
	<path d="M24.288,11.939h-1.496V9.374c0-3.855-3.137-6.992-6.992-6.992S8.808,5.518,8.808,9.374v2.565H7.669
		c-1.361,0-2.469,1.107-2.469,2.468v12.506c0,1.361,1.107,2.468,2.469,2.468h16.619c1.36,0,2.468-1.107,2.468-2.468V14.407
				C26.756,13.046,25.648,11.939,24.288,11.939z M9.808,9.374c0-3.304,2.688-5.992,5.992-5.992s5.992,2.688,5.992,5.992v2.565H9.808
				V9.374z M25.756,26.913c0,0.81-0.658,1.468-1.468,1.468H7.669c-0.81,0-1.469-0.659-1.469-1.468V14.407
				c0-0.81,0.659-1.468,1.469-1.468h1.139h13.984h1.496c0.81,0,1.468,0.659,1.468,1.468V26.913z"/>
</svg>