<svg viewBox="0 0 32 32">
	<path d="M10.141,26.613c-1.576,0-3.153-0.601-4.354-1.801c-2.401-2.401-2.401-6.308,0-8.709l8.162-8.162
		c0.195-0.195,0.512-0.195,0.707,0s0.195,0.512,0,0.707l-8.162,8.162c-2.011,2.012-2.011,5.283,0,7.295
		c2.012,2.013,5.282,2.011,7.294,0l11.175-11.175c1.34-1.341,1.34-3.522,0-4.863c-1.343-1.341-3.524-1.339-4.863,0L8.973,19.194
		c-0.67,0.671-0.67,1.761,0,2.432c0.67,0.67,1.761,0.67,2.433,0l7.788-7.788c0.195-0.195,0.512-0.195,0.707,0s0.195,0.512,0,0.707
		l-7.788,7.788c-1.061,1.061-2.786,1.061-3.847,0s-1.061-2.785,0-3.846L19.393,7.36c1.73-1.73,4.547-1.73,6.277,0
		c1.73,1.731,1.73,4.547,0,6.277L14.495,24.812C13.295,26.013,11.718,26.613,10.141,26.613z"/>
</svg>
