<?xml version="1.0" encoding="utf-8"?>
<!-- Generator: Adobe Illustrator 18.1.1, SVG Export Plug-In . SVG Version: 6.00 Build 0)  -->
<!DOCTYPE svg PUBLIC "-//W3C//DTD SVG 1.1//EN" "http://www.w3.org/Graphics/SVG/1.1/DTD/svg11.dtd">
<svg version="1.1" xmlns="http://www.w3.org/2000/svg" xmlns:xlink="http://www.w3.org/1999/xlink" x="0px" y="0px"
	 viewBox="0 0 32 32" enable-background="new 0 0 32 32" xml:space="preserve">
<g id="Guides">
</g>
<g id="Art">
	<g>
		<g>
			<path d="M27.504,16.577c-0.005,0.001-0.013,0.001-0.02,0H10.01c-0.21,0-0.396-0.131-0.469-0.327L6.057,6.794
				c-0.07-0.189-0.02-0.401,0.128-0.539c0.147-0.137,0.363-0.171,0.547-0.09l20.893,9.427c0.218,0.053,0.38,0.25,0.38,0.485
				C28.004,16.354,27.78,16.577,27.504,16.577z M10.358,15.577H25.16L7.407,7.567L10.358,15.577z"/>
		</g>
		<g>
			<path d="M6.516,25.993c-0.124,0-0.246-0.046-0.341-0.134c-0.147-0.137-0.198-0.35-0.129-0.538l3.449-9.416
				c0.072-0.197,0.26-0.328,0.47-0.328h17.414c0.235,0,0.439,0.164,0.489,0.395c0.049,0.23-0.068,0.464-0.283,0.562L6.722,25.949
				C6.655,25.979,6.585,25.993,6.516,25.993z M10.314,16.577l-2.92,7.971l17.661-7.971H10.314z"/>
		</g>
	</g>
</g>
</svg>
