<svg xmlns="http://www.w3.org/2000/svg" viewBox="0 0 32 32">
  <path d="M16,6.909c2.973,0,5.611,1.429,7.27,3.636h-3.634c-0.251,0-0.455,0.204-0.455,0.455c0,0.251,0.204,0.455,0.455,0.455
    h4.545c0.251,0,0.455-0.203,0.455-0.455V6.455C24.636,6.204,24.433,6,24.182,6c-0.251,0-0.455,0.204-0.455,0.455v3.214
    C21.895,7.432,19.117,6,16,6C10.477,6,6,10.477,6,16c0,0.251,0.204,0.455,0.455,0.455S6.909,16.251,6.909,16
    C6.909,10.98,10.979,6.909,16,6.909z M25.545,15.545c-0.251,0-0.455,0.204-0.455,0.455c0,5.021-4.07,9.091-9.091,9.091
    c-2.973,0-5.611-1.429-7.27-3.636h3.634c0.251,0,0.455-0.203,0.455-0.455c0-0.251-0.204-0.455-0.455-0.455H7.818
    c-0.251,0-0.455,0.204-0.455,0.455v4.545C7.364,25.797,7.567,26,7.818,26c0.251,0,0.455-0.203,0.455-0.455v-3.213
    C10.105,24.569,12.883,26,16,26c5.523,0,10-4.477,10-10C26,15.749,25.796,15.545,25.545,15.545z"/>
</svg>
