<svg viewBox="0 0 32 32">
	<path d="M15.939,6c5.761,0,10.066,4.663,10.066,8.833c0,1.788-0.753,4.434-2.147,5.818l-0.051,0.05l-0.296,0.293v0.417v3.845
		l-3.369-1.97l-0.366-0.214l-0.409,0.115l-0.077,0.022c-1.097,0.303-2.225,0.457-3.351,0.457c-5.761,0-10.066-4.663-10.066-8.832
		C5.873,9.962,10.389,6,15.939,6 M15.939,5C9.838,5,4.873,9.333,4.873,14.833c0,4.87,4.965,9.832,11.066,9.832
		c1.215,0,2.432-0.166,3.617-0.493l0.081-0.023L24.511,27v-5.589l0.051-0.05c1.599-1.586,2.444-4.497,2.444-6.528
	C27.005,9.963,22.041,5,15.939,5L15.939,5z"/>
</svg>