<svg xmlns="http://www.w3.org/2000/svg" viewBox="0 0 32 32">
  <path d="M16,4.587l3.708,7.514L28,13.306l-6,5.849l1.416,8.258L16,23.514l-7.416,3.899L10,19.154l-6-5.849
    l8.292-1.205L16,4.587 M16,3.587c-0.381,0-0.728,0.216-0.897,0.557l-3.476,7.042l-7.771,1.129
    c-0.377,0.055-0.69,0.319-0.807,0.681c-0.118,0.362-0.02,0.759,0.253,1.025l5.624,5.482l-1.327,7.74
    c-0.064,0.375,0.09,0.754,0.398,0.978c0.174,0.127,0.381,0.191,0.588,0.191c0.159,0,0.319-0.038,0.465-0.115L16,24.644
    l6.951,3.654c0.146,0.077,0.306,0.115,0.465,0.115c0.207,0,0.414-0.064,0.588-0.191c0.308-0.224,0.462-0.603,0.398-0.978
    l-1.327-7.74l5.624-5.482c0.273-0.266,0.371-0.663,0.253-1.025c-0.118-0.362-0.431-0.626-0.807-0.681l-7.772-1.129l-3.476-7.042
    C16.728,3.803,16.381,3.587,16,3.587L16,3.587z"/>
</svg>
