<svg viewBox="0 0 32 32">
	<path d="M26.513,5.807c-0.325-0.33-0.757-0.512-1.217-0.512h-0.019l-0.019,0.001l-7.539,0.283
		c-0.717,0.027-1.392,0.322-1.898,0.829L5.677,16.551C5.241,16.988,5,17.569,5,18.187c0,0.618,0.24,1.199,0.677,1.636l6.934,6.934
		c0.423,0.422,1.019,0.665,1.636,0.665c0.617,0,1.213-0.242,1.636-0.664L26.01,16.631c0.52-0.521,0.815-1.211,0.83-1.946L27,7.035
		C27.01,6.574,26.837,6.137,26.513,5.807z M25.84,14.665c-0.01,0.475-0.201,0.922-0.537,1.259L15.177,26.05
		c-0.248,0.248-0.589,0.372-0.93,0.372c-0.34,0-0.681-0.124-0.929-0.372l-6.934-6.933C6.137,18.869,6,18.538,6,18.187
		c0-0.351,0.136-0.681,0.385-0.929L16.528,7.114c0.328-0.328,0.765-0.519,1.229-0.536l7.539-0.283
		c0.191,0,0.369,0.075,0.503,0.212C25.932,6.643,26.004,6.823,26,7.015L25.84,14.665z"/>
	<path d="M21.633,8.928c-1.035,0-1.873,0.839-1.873,1.873c0,1.035,0.839,1.873,1.873,1.873
		c1.035,0,1.873-0.839,1.873-1.873C23.507,9.767,22.668,8.928,21.633,8.928z M21.633,11.675c-0.482,0-0.873-0.392-0.873-0.873
	s0.392-0.873,0.873-0.873s0.873,0.392,0.873,0.873S22.115,11.675,21.633,11.675z"/>
</svg>