<svg viewBox="0 0 32 32">
	<path d="M30.754,17.343c0.506-0.871,0.552-2.963-0.349-3.798c-0.604-0.56-1.367-0.562-1.872-0.562l-0.135-0.001
			c-0.84-0.01-1.681-0.013-2.522-0.013c-0.838,0-1.676,0.003-2.514,0.007c-0.835,0.003-1.671,0.007-2.506,0.007
			c-0.154,0-0.358,0.015-0.588,0.033c-0.234,0.018-0.503,0.04-0.764,0.04c-0.106,0-0.192-0.004-0.261-0.01
			c0.098-0.178,0.247-0.399,0.351-0.553c0.253-0.375,0.515-0.764,0.632-1.181c0.191-0.68,0.192-1.362,0.192-1.964l0.001-0.335
			c0.019-1.655-0.166-3.098-0.373-4.554c-0.023-0.159-0.039-0.325-0.055-0.492c-0.039-0.392-0.082-0.836-0.205-1.265
			C19.496,1.7,18.646,1,17.716,1c-0.505,0-0.98,0.202-1.372,0.583c-0.66,0.642-0.83,1.861-0.984,3.388
			c-0.03,0.301-0.055,0.564-0.088,0.746c-0.223,1.257-0.448,2.396-0.938,3.616c-0.899,2.239-2.053,4.015-3.43,5.28
			c-0.416,0.382-1.018,0.893-1.653,1.229c-0.054-0.501-0.464-0.896-0.979-0.896h-6.39c-0.552,0-1,0.448-1,1V30c0,0.552,0.448,1,1,1
			h6.39c0.552,0,1-0.448,1-1v-0.178c0.965,0.576,2.091,0.942,3.384,1.067l0.048,0.005h0.048l13.49-0.004
			c0.622,0,1.146-0.223,1.6-0.682l0.112-0.113l0.05-0.05l0.042-0.057c0.285-0.382,0.442-0.844,0.468-1.372l0.001-0.026l0-0.026
			c-0.001-0.585-0.228-1.11-0.673-1.561c-0.192-0.193-0.341-0.336-0.457-0.441c0.002,0,0.004-0.001,0.005-0.001
			c0.141-0.029,0.287-0.061,0.433-0.109c0.8-0.264,1.353-0.862,1.518-1.643c0.17-0.808-0.12-1.677-0.759-2.285
			c0.327-0.044,0.805-0.145,1.239-0.606c0.711-0.755,0.828-1.938,0.278-2.812c-0.242-0.385-0.596-0.61-0.912-0.783
			C29.667,18.242,30.335,18.064,30.754,17.343z M1.883,30V15.947h6.39v0.26l-0.004,0.001v0.723v11.71v0.514l0.004,0.003V30H1.883z
			 M29.889,16.841c-0.475,0.817-1.65,0.222-2.004,1.071c-0.451,1.08,0.981,1.106,1.37,1.726c0.311,0.495,0.242,1.169-0.16,1.595
			c-0.316,0.336-0.633,0.275-1.018,0.355c-0.396,0.082-0.761,0.066-0.881,0.597c-0.142,0.629,0.313,0.716,0.663,1.032
			c0.786,0.708,0.723,1.934-0.347,2.286c-0.249,0.082-0.501,0.094-0.698,0.186c-0.299,0.022-0.567,0.223-0.666,0.528
			c-0.118,0.364,0.048,0.753,0.375,0.922c0.051,0.039,0.226,0.182,0.609,0.568c0.269,0.272,0.383,0.541,0.384,0.86
			c-0.016,0.331-0.106,0.602-0.272,0.825l-0.112,0.113c-0.268,0.27-0.534,0.385-0.89,0.385l-13.49,0.004
			c-1.378-0.133-2.545-0.551-3.468-1.244c-0.004-0.003-0.008-0.004-0.012-0.006V16.93c0.04-0.012,0.077-0.015,0.118-0.033
			c0.8-0.349,1.547-0.955,2.19-1.547c1.659-1.525,2.835-3.539,3.681-5.644c0.515-1.281,0.755-2.464,0.994-3.814
			c0.142-0.798,0.182-3.006,0.785-3.592c0.216-0.21,0.45-0.3,0.675-0.3c0.494,0,0.95,0.432,1.106,0.977
			c0.146,0.509,0.157,1.097,0.232,1.622c0.215,1.507,0.381,2.873,0.363,4.401c-0.008,0.679,0.03,1.38-0.156,2.039
			c-0.221,0.784-1.635,1.975-0.919,2.712c0.233,0.24,0.687,0.303,1.161,0.303c0.511,0,1.046-0.073,1.352-0.073
			c1.673,0,3.347-0.013,5.02-0.013c0.837,0,1.673,0.003,2.51,0.013c0.449,0.005,0.984-0.033,1.34,0.297
			C30.204,14.722,30.225,16.262,29.889,16.841z"/>
</svg>
