<svg xmlns="http://www.w3.org/2000/svg" viewBox="0 0 32 32">
  <path d="M12.468,24.042c-0.276,0-0.5-0.224-0.5-0.5V11.521c0-0.276,0.224-0.5,0.5-0.5s0.5,0.224,0.5,0.5v12.021
    C12.968,23.818,12.744,24.042,12.468,24.042z"/>
  <path d="M15.946,24.042c-0.276,0-0.5-0.224-0.5-0.5V11.521c0-0.276,0.224-0.5,0.5-0.5s0.5,0.224,0.5,0.5v12.021
    C16.446,23.818,16.223,24.042,15.946,24.042z"/>
  <path d="M19.425,24.042c-0.276,0-0.5-0.224-0.5-0.5V11.521c0-0.276,0.224-0.5,0.5-0.5s0.5,0.224,0.5,0.5v12.021
    C19.925,23.818,19.701,24.042,19.425,24.042z"/>
  <path d="M24.958,7.957H7.042c-0.276,0-0.5-0.224-0.5-0.5s0.224-0.5,0.5-0.5h17.916c0.276,0,0.5,0.224,0.5,0.5
    S25.234,7.957,24.958,7.957z"/>
  <path d="M23,27.969H8.917c-0.827,0-1.5-0.673-1.5-1.5V6.957H24.5v19.512C24.5,27.296,23.827,27.969,23,27.969z M8.417,7.957
    v18.512c0,0.275,0.225,0.5,0.5,0.5H23c0.275,0,0.5-0.225,0.5-0.5V7.957H8.417z"/>
  <path d="M21.026,7.957h-9.964V5.479c0-0.827,0.673-1.5,1.5-1.5h6.964c0.827,0,1.5,0.673,1.5,1.5V7.957z M12.062,6.957h7.964
    V5.479c0-0.275-0.225-0.5-0.5-0.5h-6.964c-0.275,0-0.5,0.225-0.5,0.5V6.957z"/>
</svg>
