<svg viewBox="0 0 32 32">
  <path d="M9.932,5.999v3.934H5.999c-0.552,0-1,0.448-1,1v15.068c0,0.552,0.448,1,1,1h15.069c0.552,0,1-0.448,1-1v-3.933h3.933
	c0.552,0,1-0.448,1-1V5.999c0-0.552-0.448-1-1-1H10.932C10.38,4.999,9.932,5.447,9.932,5.999z M21.068,26.001H5.999V10.933
	h3.933v10.136c0,0.552,0.448,1,1,1h10.136V26.001z M26.001,21.068h-3.933H10.932V9.933V5.999h15.069V21.068z"/>
  <path d="M22.229,10.122V9.65h-6.054c-0.276,0-0.5,0.224-0.5,0.5s0.224,0.5,0.5,0.5h4.361l-5.421,5.421
  c-0.195,0.195-0.195,0.512,0,0.707c0.098,0.098,0.226,0.146,0.354,0.146s0.256-0.049,0.354-0.146l5.407-5.407v4.347
  c0,0.276,0.224,0.5,0.5,0.5s0.5-0.224,0.5-0.5v-5.525C22.231,10.169,22.231,10.146,22.229,10.122z"/>
</svg>
