<svg viewBox="0 0 32 32">
	<path d="M16.012,5c1.912,0.029,5.52,1.106,5.663,5c0.234,6.4-1.484,8.178-2.289,9.011
		c-0.416,0.425-0.622,1.013-0.561,1.605s0.382,1.126,0.876,1.457c0.479,0.321,1.104,0.709,1.713,1.088
		c1.517,0.943,3.553,2.208,4.395,3.067c0.049,0.312,0.074,0.567,0.085,0.772H6.105c0.011-0.205,0.037-0.46,0.085-0.771
		c0.845-0.861,2.879-2.126,4.397-3.07c0.606-0.376,1.233-0.766,1.711-1.086c0.491-0.329,0.811-0.859,0.875-1.447
		c0.063-0.588-0.137-1.174-0.546-1.6l-0.057-0.059C11.765,18.134,10.09,16.4,10.325,10C10.468,6.103,14.077,5.026,16.012,5
		 M16.013,4l-0.014,0c-2.234,0.03-6.503,1.315-6.673,5.964c-0.25,6.825,1.624,8.766,2.525,9.698l0.059,0.061
		c0.202,0.21,0.301,0.501,0.27,0.796c-0.032,0.295-0.191,0.558-0.438,0.723c-0.464,0.311-1.083,0.696-1.682,1.067
		c-1.63,1.013-3.655,2.272-4.584,3.219l-0.224,0.229l-0.05,0.317c-0.049,0.313-0.081,0.606-0.096,0.871L5.048,28h1.057h19.79h1.057
		l-0.058-1.055c-0.015-0.266-0.047-0.559-0.096-0.871l-0.05-0.316l-0.224-0.229c-0.925-0.944-2.95-2.203-4.578-3.215
		c-0.606-0.377-1.225-0.761-1.688-1.071c-0.248-0.166-0.408-0.431-0.438-0.728c-0.031-0.297,0.072-0.589,0.281-0.802
		c0.92-0.952,2.824-2.923,2.574-9.748C22.504,5.323,18.252,4.034,16.027,4L16.013,4L16.013,4z"/>
</svg>